<mxfile host="app.diagrams.net" modified="2023-10-11T18:55:21.960Z" agent="Mozilla/5.0 (Windows NT 10.0; Win64; x64) AppleWebKit/537.36 (KHTML, like Gecko) Chrome/117.0.0.0 Safari/537.36" etag="cbSPAVTg2rkPXHLF021J" version="22.0.4" type="device">
  <diagram id="C5RBs43oDa-KdzZeNtuy" name="Page-1">
    <mxGraphModel dx="1434" dy="758" grid="1" gridSize="10" guides="1" tooltips="1" connect="1" arrows="1" fold="1" page="1" pageScale="1" pageWidth="827" pageHeight="1169" math="0" shadow="0">
      <root>
        <mxCell id="WIyWlLk6GJQsqaUBKTNV-0" />
        <mxCell id="WIyWlLk6GJQsqaUBKTNV-1" parent="WIyWlLk6GJQsqaUBKTNV-0" />
        <mxCell id="UjW_S2W2Yb2e1hTnfytc-0" value="ui" style="shape=folder;fontStyle=1;tabWidth=110;tabHeight=30;tabPosition=left;html=1;boundedLbl=1;labelInHeader=1;container=1;collapsible=0;whiteSpace=wrap;" vertex="1" parent="WIyWlLk6GJQsqaUBKTNV-1">
          <mxGeometry x="130" y="20" width="260" height="290" as="geometry" />
        </mxCell>
        <mxCell id="UjW_S2W2Yb2e1hTnfytc-1" value="" style="html=1;strokeColor=none;resizeWidth=1;resizeHeight=1;fillColor=none;part=1;connectable=0;allowArrows=0;deletable=0;whiteSpace=wrap;" vertex="1" parent="UjW_S2W2Yb2e1hTnfytc-0">
          <mxGeometry width="185.71428571428572" height="84.58333333333333" relative="1" as="geometry">
            <mxPoint y="30" as="offset" />
          </mxGeometry>
        </mxCell>
        <mxCell id="UjW_S2W2Yb2e1hTnfytc-4" value="Executable" style="swimlane;fontStyle=1;align=center;verticalAlign=top;childLayout=stackLayout;horizontal=1;startSize=26;horizontalStack=0;resizeParent=1;resizeParentMax=0;resizeLast=0;collapsible=1;marginBottom=0;whiteSpace=wrap;html=1;" vertex="1" parent="UjW_S2W2Yb2e1hTnfytc-0">
          <mxGeometry x="29.29" y="50" width="201.43" height="224.16666666666663" as="geometry" />
        </mxCell>
        <mxCell id="UjW_S2W2Yb2e1hTnfytc-5" value="- reader: Scanner" style="text;strokeColor=none;fillColor=none;align=left;verticalAlign=top;spacingLeft=4;spacingRight=4;overflow=hidden;rotatable=0;points=[[0,0.5],[1,0.5]];portConstraint=eastwest;whiteSpace=wrap;html=1;" vertex="1" parent="UjW_S2W2Yb2e1hTnfytc-4">
          <mxGeometry y="26" width="201.43" height="31.416666666666664" as="geometry" />
        </mxCell>
        <mxCell id="UjW_S2W2Yb2e1hTnfytc-6" value="" style="line;strokeWidth=1;fillColor=none;align=left;verticalAlign=middle;spacingTop=-1;spacingLeft=3;spacingRight=3;rotatable=0;labelPosition=right;points=[];portConstraint=eastwest;strokeColor=inherit;" vertex="1" parent="UjW_S2W2Yb2e1hTnfytc-4">
          <mxGeometry y="57.416666666666664" width="201.43" height="9.666666666666666" as="geometry" />
        </mxCell>
        <mxCell id="UjW_S2W2Yb2e1hTnfytc-8" value="+ Executable()" style="text;strokeColor=none;fillColor=none;align=left;verticalAlign=top;spacingLeft=4;spacingRight=4;overflow=hidden;rotatable=0;points=[[0,0.5],[1,0.5]];portConstraint=eastwest;whiteSpace=wrap;html=1;" vertex="1" parent="UjW_S2W2Yb2e1hTnfytc-4">
          <mxGeometry y="67.08333333333333" width="201.43" height="31.416666666666664" as="geometry" />
        </mxCell>
        <mxCell id="UjW_S2W2Yb2e1hTnfytc-10" value="&lt;u&gt;+ main(String[]): void&lt;/u&gt;" style="text;strokeColor=none;fillColor=none;align=left;verticalAlign=top;spacingLeft=4;spacingRight=4;overflow=hidden;rotatable=0;points=[[0,0.5],[1,0.5]];portConstraint=eastwest;whiteSpace=wrap;html=1;" vertex="1" parent="UjW_S2W2Yb2e1hTnfytc-4">
          <mxGeometry y="98.5" width="201.43" height="31.416666666666664" as="geometry" />
        </mxCell>
        <mxCell id="UjW_S2W2Yb2e1hTnfytc-9" value="+ menu(): void" style="text;strokeColor=none;fillColor=none;align=left;verticalAlign=top;spacingLeft=4;spacingRight=4;overflow=hidden;rotatable=0;points=[[0,0.5],[1,0.5]];portConstraint=eastwest;whiteSpace=wrap;html=1;" vertex="1" parent="UjW_S2W2Yb2e1hTnfytc-4">
          <mxGeometry y="129.91666666666666" width="201.43" height="31.416666666666664" as="geometry" />
        </mxCell>
        <mxCell id="UjW_S2W2Yb2e1hTnfytc-11" value="+ registerProject(): void" style="text;strokeColor=none;fillColor=none;align=left;verticalAlign=top;spacingLeft=4;spacingRight=4;overflow=hidden;rotatable=0;points=[[0,0.5],[1,0.5]];portConstraint=eastwest;whiteSpace=wrap;html=1;" vertex="1" parent="UjW_S2W2Yb2e1hTnfytc-4">
          <mxGeometry y="161.33333333333331" width="201.43" height="31.416666666666664" as="geometry" />
        </mxCell>
        <mxCell id="UjW_S2W2Yb2e1hTnfytc-7" value="+ showProjectsByPillar(): void" style="text;strokeColor=none;fillColor=none;align=left;verticalAlign=top;spacingLeft=4;spacingRight=4;overflow=hidden;rotatable=0;points=[[0,0.5],[1,0.5]];portConstraint=eastwest;whiteSpace=wrap;html=1;" vertex="1" parent="UjW_S2W2Yb2e1hTnfytc-4">
          <mxGeometry y="192.74999999999997" width="201.43" height="31.416666666666664" as="geometry" />
        </mxCell>
        <mxCell id="UjW_S2W2Yb2e1hTnfytc-2" value="model&lt;br&gt;" style="shape=folder;fontStyle=1;tabWidth=110;tabHeight=30;tabPosition=left;html=1;boundedLbl=1;labelInHeader=1;container=1;collapsible=0;whiteSpace=wrap;" vertex="1" parent="WIyWlLk6GJQsqaUBKTNV-1">
          <mxGeometry x="540" y="10" width="940" height="730" as="geometry" />
        </mxCell>
        <mxCell id="UjW_S2W2Yb2e1hTnfytc-3" value="" style="html=1;strokeColor=none;resizeWidth=1;resizeHeight=1;fillColor=none;part=1;connectable=0;allowArrows=0;deletable=0;whiteSpace=wrap;" vertex="1" parent="UjW_S2W2Yb2e1hTnfytc-2">
          <mxGeometry width="940" height="511" relative="1" as="geometry">
            <mxPoint y="30" as="offset" />
          </mxGeometry>
        </mxCell>
        <mxCell id="UjW_S2W2Yb2e1hTnfytc-39" value="pillars" style="edgeStyle=orthogonalEdgeStyle;rounded=0;orthogonalLoop=1;jettySize=auto;html=1;" edge="1" parent="UjW_S2W2Yb2e1hTnfytc-2" source="UjW_S2W2Yb2e1hTnfytc-12" target="UjW_S2W2Yb2e1hTnfytc-24">
          <mxGeometry relative="1" as="geometry" />
        </mxCell>
        <mxCell id="UjW_S2W2Yb2e1hTnfytc-40" value="1" style="edgeLabel;html=1;align=center;verticalAlign=middle;resizable=0;points=[];" vertex="1" connectable="0" parent="UjW_S2W2Yb2e1hTnfytc-39">
          <mxGeometry x="-0.782" y="-1" relative="1" as="geometry">
            <mxPoint as="offset" />
          </mxGeometry>
        </mxCell>
        <mxCell id="UjW_S2W2Yb2e1hTnfytc-41" value="4" style="edgeLabel;html=1;align=center;verticalAlign=middle;resizable=0;points=[];" vertex="1" connectable="0" parent="UjW_S2W2Yb2e1hTnfytc-39">
          <mxGeometry x="0.6185" y="-1" relative="1" as="geometry">
            <mxPoint as="offset" />
          </mxGeometry>
        </mxCell>
        <mxCell id="UjW_S2W2Yb2e1hTnfytc-12" value="Controller" style="swimlane;fontStyle=1;align=center;verticalAlign=top;childLayout=stackLayout;horizontal=1;startSize=26;horizontalStack=0;resizeParent=1;resizeParentMax=0;resizeLast=0;collapsible=1;marginBottom=0;whiteSpace=wrap;html=1;" vertex="1" parent="UjW_S2W2Yb2e1hTnfytc-2">
          <mxGeometry x="68.11" y="109.25" width="371.89" height="129.91666666666666" as="geometry" />
        </mxCell>
        <mxCell id="UjW_S2W2Yb2e1hTnfytc-14" value="" style="line;strokeWidth=1;fillColor=none;align=left;verticalAlign=middle;spacingTop=-1;spacingLeft=3;spacingRight=3;rotatable=0;labelPosition=right;points=[];portConstraint=eastwest;strokeColor=inherit;" vertex="1" parent="UjW_S2W2Yb2e1hTnfytc-12">
          <mxGeometry y="26" width="371.89" height="9.666666666666666" as="geometry" />
        </mxCell>
        <mxCell id="UjW_S2W2Yb2e1hTnfytc-15" value="+ Controller()" style="text;strokeColor=none;fillColor=none;align=left;verticalAlign=top;spacingLeft=4;spacingRight=4;overflow=hidden;rotatable=0;points=[[0,0.5],[1,0.5]];portConstraint=eastwest;whiteSpace=wrap;html=1;" vertex="1" parent="UjW_S2W2Yb2e1hTnfytc-12">
          <mxGeometry y="35.666666666666664" width="371.89" height="31.416666666666664" as="geometry" />
        </mxCell>
        <mxCell id="UjW_S2W2Yb2e1hTnfytc-17" value="+ registerProjectInPillar(int, boolean, String, String, String): boolean" style="text;strokeColor=none;fillColor=none;align=left;verticalAlign=top;spacingLeft=4;spacingRight=4;overflow=hidden;rotatable=0;points=[[0,0.5],[1,0.5]];portConstraint=eastwest;whiteSpace=wrap;html=1;" vertex="1" parent="UjW_S2W2Yb2e1hTnfytc-12">
          <mxGeometry y="67.08333333333333" width="371.89" height="31.416666666666664" as="geometry" />
        </mxCell>
        <mxCell id="UjW_S2W2Yb2e1hTnfytc-18" value="+ queryProjectsByPillar(int): String" style="text;strokeColor=none;fillColor=none;align=left;verticalAlign=top;spacingLeft=4;spacingRight=4;overflow=hidden;rotatable=0;points=[[0,0.5],[1,0.5]];portConstraint=eastwest;whiteSpace=wrap;html=1;" vertex="1" parent="UjW_S2W2Yb2e1hTnfytc-12">
          <mxGeometry y="98.5" width="371.89" height="31.416666666666664" as="geometry" />
        </mxCell>
        <mxCell id="UjW_S2W2Yb2e1hTnfytc-42" style="edgeStyle=orthogonalEdgeStyle;rounded=0;orthogonalLoop=1;jettySize=auto;html=1;entryX=0.5;entryY=0;entryDx=0;entryDy=0;" edge="1" parent="UjW_S2W2Yb2e1hTnfytc-2" source="UjW_S2W2Yb2e1hTnfytc-24" target="UjW_S2W2Yb2e1hTnfytc-30">
          <mxGeometry relative="1" as="geometry" />
        </mxCell>
        <mxCell id="UjW_S2W2Yb2e1hTnfytc-43" value="projects" style="edgeLabel;html=1;align=center;verticalAlign=middle;resizable=0;points=[];" vertex="1" connectable="0" parent="UjW_S2W2Yb2e1hTnfytc-42">
          <mxGeometry x="-0.2687" relative="1" as="geometry">
            <mxPoint y="4" as="offset" />
          </mxGeometry>
        </mxCell>
        <mxCell id="UjW_S2W2Yb2e1hTnfytc-44" value="1" style="edgeLabel;html=1;align=center;verticalAlign=middle;resizable=0;points=[];" vertex="1" connectable="0" parent="UjW_S2W2Yb2e1hTnfytc-42">
          <mxGeometry x="-0.7386" y="2" relative="1" as="geometry">
            <mxPoint as="offset" />
          </mxGeometry>
        </mxCell>
        <mxCell id="UjW_S2W2Yb2e1hTnfytc-45" value="0..50" style="edgeLabel;html=1;align=center;verticalAlign=middle;resizable=0;points=[];" vertex="1" connectable="0" parent="UjW_S2W2Yb2e1hTnfytc-42">
          <mxGeometry x="0.4361" y="-1" relative="1" as="geometry">
            <mxPoint as="offset" />
          </mxGeometry>
        </mxCell>
        <mxCell id="UjW_S2W2Yb2e1hTnfytc-24" value="Pillar" style="swimlane;fontStyle=1;align=center;verticalAlign=top;childLayout=stackLayout;horizontal=1;startSize=26;horizontalStack=0;resizeParent=1;resizeParentMax=0;resizeLast=0;collapsible=1;marginBottom=0;whiteSpace=wrap;html=1;" vertex="1" parent="UjW_S2W2Yb2e1hTnfytc-2">
          <mxGeometry x="600" y="93.54" width="210" height="161.33333333333331" as="geometry" />
        </mxCell>
        <mxCell id="UjW_S2W2Yb2e1hTnfytc-29" value="- name: String" style="text;strokeColor=none;fillColor=none;align=left;verticalAlign=top;spacingLeft=4;spacingRight=4;overflow=hidden;rotatable=0;points=[[0,0.5],[1,0.5]];portConstraint=eastwest;whiteSpace=wrap;html=1;" vertex="1" parent="UjW_S2W2Yb2e1hTnfytc-24">
          <mxGeometry y="26" width="210" height="31.416666666666664" as="geometry" />
        </mxCell>
        <mxCell id="UjW_S2W2Yb2e1hTnfytc-25" value="" style="line;strokeWidth=1;fillColor=none;align=left;verticalAlign=middle;spacingTop=-1;spacingLeft=3;spacingRight=3;rotatable=0;labelPosition=right;points=[];portConstraint=eastwest;strokeColor=inherit;" vertex="1" parent="UjW_S2W2Yb2e1hTnfytc-24">
          <mxGeometry y="57.416666666666664" width="210" height="9.666666666666666" as="geometry" />
        </mxCell>
        <mxCell id="UjW_S2W2Yb2e1hTnfytc-26" value="+ Pillar(String)" style="text;strokeColor=none;fillColor=none;align=left;verticalAlign=top;spacingLeft=4;spacingRight=4;overflow=hidden;rotatable=0;points=[[0,0.5],[1,0.5]];portConstraint=eastwest;whiteSpace=wrap;html=1;" vertex="1" parent="UjW_S2W2Yb2e1hTnfytc-24">
          <mxGeometry y="67.08333333333333" width="210" height="31.416666666666664" as="geometry" />
        </mxCell>
        <mxCell id="UjW_S2W2Yb2e1hTnfytc-27" value="+ registerProject(Project): boolean" style="text;strokeColor=none;fillColor=none;align=left;verticalAlign=top;spacingLeft=4;spacingRight=4;overflow=hidden;rotatable=0;points=[[0,0.5],[1,0.5]];portConstraint=eastwest;whiteSpace=wrap;html=1;" vertex="1" parent="UjW_S2W2Yb2e1hTnfytc-24">
          <mxGeometry y="98.5" width="210" height="31.416666666666664" as="geometry" />
        </mxCell>
        <mxCell id="UjW_S2W2Yb2e1hTnfytc-28" value="+ qetProjectList(): String" style="text;strokeColor=none;fillColor=none;align=left;verticalAlign=top;spacingLeft=4;spacingRight=4;overflow=hidden;rotatable=0;points=[[0,0.5],[1,0.5]];portConstraint=eastwest;whiteSpace=wrap;html=1;" vertex="1" parent="UjW_S2W2Yb2e1hTnfytc-24">
          <mxGeometry y="129.91666666666666" width="210" height="31.416666666666664" as="geometry" />
        </mxCell>
        <mxCell id="UjW_S2W2Yb2e1hTnfytc-30" value="Project" style="swimlane;fontStyle=1;align=center;verticalAlign=top;childLayout=stackLayout;horizontal=1;startSize=26;horizontalStack=0;resizeParent=1;resizeParentMax=0;resizeLast=0;collapsible=1;marginBottom=0;whiteSpace=wrap;html=1;" vertex="1" parent="UjW_S2W2Yb2e1hTnfytc-2">
          <mxGeometry x="579.16" y="370" width="251.67" height="192.74999999999997" as="geometry" />
        </mxCell>
        <mxCell id="UjW_S2W2Yb2e1hTnfytc-31" value="- status: boolean" style="text;strokeColor=none;fillColor=none;align=left;verticalAlign=top;spacingLeft=4;spacingRight=4;overflow=hidden;rotatable=0;points=[[0,0.5],[1,0.5]];portConstraint=eastwest;whiteSpace=wrap;html=1;" vertex="1" parent="UjW_S2W2Yb2e1hTnfytc-30">
          <mxGeometry y="26" width="251.67" height="31.416666666666664" as="geometry" />
        </mxCell>
        <mxCell id="UjW_S2W2Yb2e1hTnfytc-36" value="- name: String" style="text;strokeColor=none;fillColor=none;align=left;verticalAlign=top;spacingLeft=4;spacingRight=4;overflow=hidden;rotatable=0;points=[[0,0.5],[1,0.5]];portConstraint=eastwest;whiteSpace=wrap;html=1;" vertex="1" parent="UjW_S2W2Yb2e1hTnfytc-30">
          <mxGeometry y="57.416666666666664" width="251.67" height="31.416666666666664" as="geometry" />
        </mxCell>
        <mxCell id="UjW_S2W2Yb2e1hTnfytc-37" value="- id: String" style="text;strokeColor=none;fillColor=none;align=left;verticalAlign=top;spacingLeft=4;spacingRight=4;overflow=hidden;rotatable=0;points=[[0,0.5],[1,0.5]];portConstraint=eastwest;whiteSpace=wrap;html=1;" vertex="1" parent="UjW_S2W2Yb2e1hTnfytc-30">
          <mxGeometry y="88.83333333333333" width="251.67" height="31.416666666666664" as="geometry" />
        </mxCell>
        <mxCell id="UjW_S2W2Yb2e1hTnfytc-38" value="- description: String" style="text;strokeColor=none;fillColor=none;align=left;verticalAlign=top;spacingLeft=4;spacingRight=4;overflow=hidden;rotatable=0;points=[[0,0.5],[1,0.5]];portConstraint=eastwest;whiteSpace=wrap;html=1;" vertex="1" parent="UjW_S2W2Yb2e1hTnfytc-30">
          <mxGeometry y="120.25" width="251.67" height="31.416666666666664" as="geometry" />
        </mxCell>
        <mxCell id="UjW_S2W2Yb2e1hTnfytc-32" value="" style="line;strokeWidth=1;fillColor=none;align=left;verticalAlign=middle;spacingTop=-1;spacingLeft=3;spacingRight=3;rotatable=0;labelPosition=right;points=[];portConstraint=eastwest;strokeColor=inherit;" vertex="1" parent="UjW_S2W2Yb2e1hTnfytc-30">
          <mxGeometry y="151.66666666666666" width="251.67" height="9.666666666666666" as="geometry" />
        </mxCell>
        <mxCell id="UjW_S2W2Yb2e1hTnfytc-33" value="+ Project(boolean,String, String, String)" style="text;strokeColor=none;fillColor=none;align=left;verticalAlign=top;spacingLeft=4;spacingRight=4;overflow=hidden;rotatable=0;points=[[0,0.5],[1,0.5]];portConstraint=eastwest;whiteSpace=wrap;html=1;" vertex="1" parent="UjW_S2W2Yb2e1hTnfytc-30">
          <mxGeometry y="161.33333333333331" width="251.67" height="31.416666666666664" as="geometry" />
        </mxCell>
        <mxCell id="UjW_S2W2Yb2e1hTnfytc-20" style="edgeStyle=orthogonalEdgeStyle;rounded=0;orthogonalLoop=1;jettySize=auto;html=1;entryX=0;entryY=0.5;entryDx=0;entryDy=0;" edge="1" parent="WIyWlLk6GJQsqaUBKTNV-1" source="UjW_S2W2Yb2e1hTnfytc-10" target="UjW_S2W2Yb2e1hTnfytc-12">
          <mxGeometry relative="1" as="geometry" />
        </mxCell>
        <mxCell id="UjW_S2W2Yb2e1hTnfytc-21" value="control" style="edgeLabel;html=1;align=center;verticalAlign=middle;resizable=0;points=[];" vertex="1" connectable="0" parent="UjW_S2W2Yb2e1hTnfytc-20">
          <mxGeometry x="-0.0699" relative="1" as="geometry">
            <mxPoint as="offset" />
          </mxGeometry>
        </mxCell>
        <mxCell id="UjW_S2W2Yb2e1hTnfytc-22" value="1" style="edgeLabel;html=1;align=center;verticalAlign=middle;resizable=0;points=[];" vertex="1" connectable="0" parent="UjW_S2W2Yb2e1hTnfytc-20">
          <mxGeometry x="0.883" relative="1" as="geometry">
            <mxPoint x="-6" as="offset" />
          </mxGeometry>
        </mxCell>
        <mxCell id="UjW_S2W2Yb2e1hTnfytc-23" value="1" style="edgeLabel;html=1;align=center;verticalAlign=middle;resizable=0;points=[];" vertex="1" connectable="0" parent="UjW_S2W2Yb2e1hTnfytc-20">
          <mxGeometry x="-0.8556" y="-1" relative="1" as="geometry">
            <mxPoint as="offset" />
          </mxGeometry>
        </mxCell>
      </root>
    </mxGraphModel>
  </diagram>
</mxfile>
